<svg height="18" viewBox="0 0 36 18" width="36" xmlns="http://www.w3.org/2000/svg"><path d="m26.8562125 3.99510291c-2.7552003 0-4.9693747 2.5159004-6.742665 4.68195473 2.0158416 2.81242416 3.7397113 5.32702406 6.9884677 5.32702406 2.6576596 0 4.5746599-2.0704644 4.5746599-5.17746161 0-2.61279085-2.0158416-4.83281772-4.7229218-4.83281772zm9.0192656 4.83281772c0 5.76985897-4.1838468 9.17207937-8.5614744 9.17207937-2.8065718 0-5.9051154-1.0853031-9.3509041-5.7692087-2.656359 3.3040295-5.3634392 5.7692087-9.5466357 5.7692087-4.38478066 0-8.4164639-3.5504823-8.4164639-8.9249762 0-5.37449387 3.88797324-9.07453865 8.90871942-9.07453865 3.93414248 0 6.43768778 2.17190678 9.04592668 5.6222473 2.0665628-2.31691732 4.9264568-5.66906685 9.6513295-5.6222473 4.5753102.04877036 8.2669014 3.45164107 8.2669014 8.77866512zm-26.87116877 5.12869127c2.75520027 0 4.96937477-2.5165507 6.74201477-4.68195476-2.0158416-2.81307446-3.739061-5.32702404-6.9878174-5.32702404-2.65765958 0-4.5753102 2.07111469-4.5753102 5.1774616 0 2.6127908 2.01584162 4.8328177 4.72292183 4.8328177z" fill="#d8262c"></path></svg>